<svg width="59" height="59" viewBox="0 0 59 59" fill="none" xmlns="http://www.w3.org/2000/svg">
<path d="M46.9006 12.6758C47.1883 12.9535 47.44 13.2253 47.6636 13.5567C47.7432 13.6738 47.7432 13.6738 47.8245 13.7932C47.9055 13.9139 47.9055 13.9139 47.9881 14.037C48.0959 14.1962 48.2038 14.3554 48.3118 14.5146C48.3902 14.631 48.3902 14.631 48.4702 14.7498C48.6273 14.9779 48.7917 15.1992 48.9573 15.4212C49.2053 15.7871 49.2053 15.7871 49.2053 16.1328C49.0923 16.193 48.9792 16.2531 48.8627 16.3151C44.6336 18.6054 41.0545 22.1403 39.6224 26.8172C39.215 28.1377 39.215 28.1377 39.0647 29.5C39.1265 29.4694 39.1883 29.4388 39.2519 29.4073C41.2912 28.4882 43.8285 28.6843 45.8973 29.4388C47.9633 30.2611 49.6975 31.7865 50.6817 33.7997C50.7703 34.0164 50.8541 34.235 50.9338 34.4551C50.979 34.5773 51.0241 34.6996 51.0707 34.8255C51.6631 36.6871 51.5877 38.7307 50.9338 40.5625C50.9019 40.6629 50.8699 40.7633 50.837 40.8668C50.1882 42.7206 48.7616 44.5097 47.0158 45.4023C44.5474 46.5083 41.8939 46.6034 39.3528 45.6801C38.2388 45.2313 37.3123 44.7055 36.4143 43.9043C36.3307 43.8315 36.247 43.7587 36.1609 43.6837C33.5442 41.2503 32.3135 37.6952 32.1312 34.1979C32.0126 30.7716 32.5915 27.6262 34.1096 24.5449C34.1461 24.4698 34.1826 24.3947 34.2203 24.3174C35.0972 22.5336 36.2471 20.9549 37.5666 19.4746C37.6451 19.3855 37.6451 19.3855 37.7251 19.2946C40.2987 16.3765 43.4538 14.4098 46.9006 12.6758Z" fill="#14212C"/>
<path d="M22.3558 12.6758C22.7146 13.1155 23.0499 13.5675 23.3785 14.0298C23.4539 14.1355 23.4539 14.1355 23.5308 14.2434C23.9184 14.7892 24.2954 15.3413 24.6605 15.9023C24.2995 16.3031 23.9241 16.5338 23.4506 16.7882C22.6462 17.2331 21.9242 17.7508 21.2035 18.3223C21.1035 18.3986 21.0035 18.475 20.9005 18.5536C19.3113 19.7995 17.9446 21.2534 16.8246 22.9316C16.7591 23.0264 16.6936 23.1212 16.6261 23.2188C15.4411 25.0453 14.7146 27.3583 14.4047 29.5C14.4748 29.4694 14.5449 29.4388 14.6171 29.4073C16.7402 28.5518 19.2112 28.6274 21.3285 29.4817C23.6443 30.4992 25.2786 32.0202 26.3103 34.3344C27.1405 36.4789 27.1036 38.9395 26.1856 41.0504C25.1858 43.2003 23.7292 44.933 21.4628 45.7913C21.262 45.8566 21.0604 45.9193 20.8578 45.9785C20.7368 46.0153 20.7368 46.0153 20.6134 46.0528C18.2546 46.6726 15.5605 46.2771 13.4468 45.0854C10.493 43.3307 8.80547 40.3596 7.93533 37.1194C7.63495 35.7756 7.55909 34.4428 7.56262 33.0723C7.56264 32.9842 7.56266 32.8962 7.56269 32.8055C7.56678 31.3168 7.69773 29.9097 8.06677 28.4629C8.08712 28.3779 8.10747 28.293 8.12843 28.2054C9.50971 22.5166 13.8371 17.6719 18.7043 14.6276C19.3151 14.2613 19.9341 13.9098 20.5553 13.5616C20.6416 13.5131 20.728 13.4646 20.817 13.4146C21.3198 13.1362 21.8235 12.8928 22.3558 12.6758Z" fill="#14212C"/>
</svg>
