<svg width="1105" height="250" viewBox="0 0 1105 250" fill="none" xmlns="http://www.w3.org/2000/svg">
<path d="M334.743 248.276L229.614 64.6666L287.204 62.9865L320.963 122.267C323.512 127.168 326.526 131.408 328.682 136.31C330.839 141.016 333.763 144.553 335.919 150.631C338.075 144.553 340.232 139.161 342.388 134.455C344.545 129.554 346.897 124.652 349.446 119.75L377.087 62.9865H431.487L334.743 248.276Z" fill="#FAFBFC"/>
<path d="M535.243 245.335C515.444 245.335 497.996 241.218 482.901 232.982C467.806 224.747 456.044 213.473 447.614 199.16C439.185 184.65 434.97 168.082 434.97 149.455C434.97 131.612 439.087 115.828 447.32 102.103C455.554 88.182 466.63 77.2019 480.549 69.1628C494.664 61.1238 510.249 57.1043 527.304 57.1043C544.751 57.1043 560.336 61.1238 574.059 69.1628C587.781 77.0058 598.564 87.7898 606.405 101.515C614.443 115.24 618.461 130.828 618.461 148.279V166.219H510.837C505.936 166.219 501.231 165.925 496.722 165.337C492.213 164.749 487.704 164.062 483.195 163.278C485.548 175.043 491.331 184.65 500.545 192.101C509.954 199.356 521.913 202.983 536.42 202.983C547.594 202.983 557.592 200.728 566.413 196.219C575.431 191.709 582.782 186.121 588.468 179.454L599.642 225.336C590.82 232.002 580.822 237.002 569.648 240.335C558.67 243.668 547.202 245.335 535.243 245.335ZM482.019 132.397C491.821 130.24 501.427 129.161 510.837 129.161H542.007C547.496 129.161 552.691 129.357 557.592 129.75C562.493 130.142 567.099 130.828 571.412 131.808C568.472 121.22 563.081 112.887 555.239 106.809C547.594 100.731 538.086 97.6916 526.716 97.6916C515.934 97.6916 506.524 100.829 498.486 107.103C490.645 113.181 485.156 121.613 482.019 132.397Z" fill="#FAFBFC"/>
<path d="M646.829 249.104V62.9865H692.701V93.2799C698.779 83.0841 706.424 75.2411 715.638 69.7511C725.048 64.0649 756.614 59.1043 770.114 69.7511L757.614 104.75C753.89 103.574 752.114 104.604 748.114 104.604C733.411 104.604 720.539 109.554 711.521 119.162C702.503 128.573 697.995 142.102 697.995 159.749V249.104H646.829Z" fill="#FAFBFC"/>
<path d="M843.213 249.104C831.254 249.104 819.1 247.144 806.75 243.222C794.595 239.301 785.087 234.007 778.226 227.34L790.87 179.106C796.556 186.949 804.397 193.812 814.395 199.694C824.589 205.576 835.077 208.517 845.859 208.517C853.112 208.517 858.307 207.145 861.444 204.4C864.777 201.654 866.443 198.321 866.443 194.4C866.443 189.89 864.777 186.655 861.444 184.694C858.111 182.537 854.681 180.773 851.152 179.4L826.451 169.989C820.962 167.832 811.454 161.121 804.397 157.396C797.34 153.671 791.164 148.377 785.871 141.514C780.774 134.651 778.226 125.632 778.226 114.456C778.226 104.26 780.774 94.8485 785.871 86.2212C790.968 77.594 798.32 70.6334 807.926 65.3394C817.728 59.8493 829.49 57.1043 843.212 57.1043C855.955 57.1043 867.815 59.2611 878.793 63.5747C889.967 67.8884 898.103 72.6922 903.2 77.9861L891.438 124.456C884.772 115.828 876.833 109.26 867.619 104.75C858.601 100.044 849.976 97.6916 841.742 97.6916C835.469 97.6916 830.862 98.966 827.922 101.515C824.981 104.064 823.511 107.005 823.511 110.338C823.511 112.887 824.491 115.436 826.451 117.985C828.608 120.338 832.136 122.495 837.037 124.456L859.974 132.985C866.639 135.338 873.696 138.475 881.146 142.396C888.791 146.318 895.261 151.808 900.554 158.867C905.847 165.729 911.728 179.008 911.728 191.165C911.728 208.223 905.356 222.144 892.614 232.928C880.068 243.712 863.6 249.104 843.213 249.104Z" fill="#FAFBFC"/>
<path d="M1029.4 245.335C1009.6 245.335 992.149 241.218 977.054 232.982C961.959 224.747 950.197 213.473 941.767 199.16C933.338 184.65 929.123 168.082 929.123 149.455C929.123 131.612 933.24 115.828 941.473 102.103C949.707 88.182 960.783 77.2019 974.702 69.1628C988.817 61.1238 1004.4 57.1043 1021.46 57.1043C1038.9 57.1043 1054.49 61.1238 1068.21 69.1628C1081.93 77.0058 1084.22 80.4371 1092.06 94.1622C1100.1 107.887 1104.11 123.475 1104.11 140.926V158.867L1005.73 164.161C1000.83 164.161 996.123 163.866 991.614 163.278C986.614 163.278 981.857 164.062 977.348 163.278C979.701 175.043 985.484 184.65 994.698 192.101C1004.11 199.356 1016.07 202.983 1030.57 202.983C1041.75 202.983 1051.74 200.728 1060.57 196.219C1069.58 191.709 1076.94 186.121 1082.62 179.454L1093.79 225.336C1084.97 232.002 1074.97 237.002 1063.8 240.335C1052.82 243.668 1041.35 245.335 1029.4 245.335ZM976.172 132.397C985.974 130.24 995.58 129.161 1004.99 129.161H1036.16C1041.65 129.161 1046.84 129.357 1051.74 129.75C1056.65 130.142 1061.25 130.828 1065.57 131.808C1062.62 121.22 1057.23 112.887 1049.39 106.809C1041.75 100.731 1032.24 97.6916 1020.87 97.6916C1010.09 97.6916 1000.68 100.829 992.639 107.103C984.798 113.181 979.309 121.613 976.172 132.397Z" fill="#FAFBFC"/>
<path d="M59.1361 207.95L41.6611 177.351L0.000134633 249.011L64.116 249.203L73.4896 233.079L73.6611 232.788C73.2827 232.319 72.9152 231.855 72.5533 231.375C72.4601 231.248 72.3724 231.116 72.2903 230.978L59.1361 207.95Z" fill="#FAFBFC"/>
<path d="M230.232 170.57C230.231 170.912 230.23 171.253 230.224 171.589C229.905 191.824 221.978 210.203 209.171 223.993C205.841 227.588 202.17 230.869 198.22 233.781C197.911 234.016 197.602 234.241 197.293 234.466C197.133 234.581 196.979 234.696 196.819 234.806C196.791 234.828 196.769 234.85 196.742 234.866C196.493 235.042 196.245 235.217 195.991 235.392C195.743 235.568 195.489 235.743 195.236 235.913C194.866 236.171 194.497 236.417 194.127 236.658C193.768 236.894 193.41 237.124 193.051 237.349C192.969 237.404 192.892 237.453 192.809 237.502C192.77 237.535 192.726 237.563 192.682 237.584C192.329 237.809 191.976 238.023 191.618 238.242C191.54 238.286 191.469 238.329 191.391 238.379C191.05 238.576 190.388 238.97 190.046 239.167C189.555 239.441 189.064 239.715 188.574 239.983C188.535 240.011 188.491 240.033 188.447 240.054C188.364 240.098 188.281 240.142 188.199 240.186C187.907 240.345 187.609 240.503 187.311 240.657C186.931 240.854 186.55 241.051 186.164 241.242C185.784 241.434 185.398 241.62 185.007 241.806C184.544 242.03 184.075 242.249 183.601 242.462C183.292 242.604 182.978 242.747 182.664 242.883C181.876 243.228 181.076 243.567 180.272 243.889C179.869 244.047 179.467 244.206 179.065 244.359C178.696 244.501 178.326 244.637 177.952 244.774L177.637 244.888C177.301 245.009 176.96 245.123 176.618 245.243C176.21 245.385 175.797 245.522 175.384 245.652C175.169 245.723 174.948 245.794 174.733 245.86C174.662 245.881 174.59 245.903 174.519 245.925C174.182 246.034 173.841 246.138 173.499 246.236C173.45 246.252 173.406 246.269 173.356 246.279C173.047 246.372 172.739 246.459 172.43 246.546C171.995 246.666 171.565 246.786 171.13 246.9C170.926 246.955 170.717 247.009 170.513 247.058C170.458 247.074 170.403 247.085 170.348 247.102C169.924 247.211 169.5 247.314 169.07 247.412C169.042 247.417 169.015 247.422 168.987 247.428C168.701 247.499 168.409 247.564 168.122 247.624C167.737 247.71 167.34 247.792 166.949 247.873C166.558 247.955 166.167 248.031 165.776 248.101C165.148 248.22 164.515 248.334 163.881 248.437C163.854 248.442 163.826 248.447 163.793 248.453C163.556 248.491 163.319 248.528 163.083 248.561C162.747 248.615 162.405 248.663 162.064 248.706C161.386 248.803 160.704 248.889 160.021 248.965C159.679 249.008 159.332 249.045 158.991 249.077C158.633 249.109 158.27 249.141 157.906 249.173C157.537 249.205 157.163 249.237 156.789 249.263C156.755 249.263 156.717 249.263 156.684 249.268C156.326 249.295 155.974 249.316 155.616 249.331C155.225 249.358 154.828 249.373 154.438 249.388C154.151 249.404 153.859 249.414 153.568 249.419C153.094 249.434 152.621 249.443 152.147 249.447C151.801 249.452 151.454 249.456 151.101 249.455C150.793 249.454 150.479 249.448 150.171 249.447C149.703 249.44 149.241 249.433 148.778 249.415C148.476 249.409 148.168 249.397 147.865 249.385C147.562 249.373 147.259 249.356 146.957 249.338C146.621 249.321 146.291 249.303 145.955 249.28C145.515 249.252 145.074 249.217 144.64 249.183C144.243 249.149 143.847 249.114 143.451 249.075C143.407 249.069 143.368 249.069 143.324 249.063C142.961 249.024 142.609 248.99 142.251 248.944C141.893 248.905 141.536 248.865 141.178 248.815C140.908 248.781 140.644 248.747 140.38 248.708C140.265 248.696 140.149 248.679 140.039 248.663C139.384 248.567 138.74 248.466 138.097 248.36C137.943 248.337 137.794 248.309 137.646 248.281C137.403 248.242 137.167 248.197 136.93 248.152C136.358 248.046 135.791 247.934 135.23 247.817C135.159 247.806 135.087 247.789 135.016 247.778C134.955 247.767 134.895 247.75 134.834 247.739C134.317 247.627 133.805 247.51 133.294 247.393C133.277 247.393 133.255 247.387 133.239 247.382C133.222 247.376 133.2 247.371 133.184 247.371C132.909 247.298 132.639 247.237 132.364 247.17C132.051 247.092 131.737 247.014 131.424 246.93C130.797 246.769 130.175 246.596 129.559 246.418C129.251 246.329 128.943 246.24 128.635 246.146C128.514 246.113 128.393 246.074 128.272 246.035C128.069 245.974 127.871 245.912 127.673 245.851C127.337 245.746 127.007 245.64 126.672 245.529C126.248 245.39 125.83 245.246 125.412 245.101C125.093 244.99 124.774 244.879 124.461 244.763C124.263 244.691 124.06 244.618 123.862 244.541C123.13 244.269 122.41 243.991 121.695 243.698C121.409 243.581 121.129 243.465 120.848 243.348C120.513 243.204 120.172 243.06 119.837 242.91C119.205 242.633 118.572 242.345 117.946 242.051C117.632 241.907 117.325 241.758 117.011 241.603C116.698 241.453 116.39 241.298 116.077 241.143C115.461 240.833 114.851 240.517 114.247 240.191C113.878 240.002 113.516 239.792 113.158 239.598C112.576 239.288 112.01 238.956 111.449 238.619C111.18 238.459 110.911 238.298 110.653 238.138C110.356 237.961 110.065 237.784 109.773 237.596C109.631 237.507 109.482 237.413 109.339 237.319C109.196 237.225 109.048 237.137 108.905 237.043C108.614 236.86 108.323 236.672 108.037 236.478C108.032 236.478 108.032 236.478 108.032 236.478C107.713 236.268 107.394 236.053 107.081 235.831C107.07 235.826 107.059 235.815 107.048 235.809C107.026 235.798 107.01 235.782 106.988 235.771C106.911 235.721 106.834 235.666 106.757 235.616C106.735 235.599 106.713 235.583 106.691 235.566C106.592 235.494 106.493 235.428 106.395 235.356C106.092 235.151 105.796 234.941 105.499 234.726C105.219 234.521 104.944 234.322 104.67 234.118C104.39 233.913 104.121 233.709 103.846 233.499C103.571 233.294 103.302 233.084 103.033 232.874C102.758 232.659 102.495 232.449 102.226 232.233C101.957 232.018 101.693 231.802 101.429 231.587C100.919 231.167 100.419 230.742 99.9195 230.305C99.4088 229.863 98.8982 229.416 98.3986 228.958C97.8716 228.477 97.3501 227.986 96.8342 227.483C96.5871 227.246 96.3401 227.008 96.0986 226.765C95.0723 225.749 94.0735 224.706 93.1024 223.63C92.8939 223.398 92.6854 223.166 92.4769 222.929C92.2849 222.708 92.0874 222.487 91.8954 222.266C91.8954 222.261 91.8954 222.261 91.8899 222.255L91.8679 222.233L91.868 222.228C91.643 221.968 91.4181 221.703 91.1987 221.438C91.1219 221.35 91.0451 221.262 90.9738 221.174C90.9299 221.118 90.8806 221.063 90.8367 221.008C90.8257 220.997 90.8148 220.98 90.8093 220.969C90.716 220.864 90.6283 220.754 90.5405 220.644L53.7503 156.546L53.9219 156.249L85.4449 102.027L85.3847 101.922L85.3847 101.916L97.2699 81.5398L85.5666 101.812L91.7694 91.1459L97.3138 81.6115L99.696 85.7583L109.767 103.266L110.112 103.867L110.38 104.336L110.38 104.341L129.252 137.146L129.269 137.174L117.427 157.545L130.719 180.65L130.894 180.953C130.949 181.08 131.003 181.201 131.058 181.328L133.243 185.127C133.325 185.243 133.408 185.359 133.49 185.469C137.711 191.218 144.51 194.954 152.189 194.977C154.87 194.985 157.442 194.541 159.844 193.717C160.192 193.597 160.533 193.472 160.869 193.335C161.057 193.259 161.25 193.182 161.437 193.1C161.448 193.095 161.465 193.089 161.476 193.084C161.52 193.062 161.564 193.045 161.608 193.023C161.823 192.931 162.032 192.838 162.242 192.734C162.484 192.624 162.722 192.504 162.953 192.378C163.201 192.252 163.449 192.121 163.692 191.978C164.194 191.699 164.679 191.403 165.148 191.085C165.6 190.784 166.036 190.466 166.466 190.137C166.477 190.131 166.488 190.126 166.5 190.115C171.984 185.876 175.521 179.237 175.544 171.767C175.555 167.902 174.625 164.255 172.966 161.047L171.909 159.205L171.904 159.199L144.319 111.236L140.283 104.216L134.746 94.5991L134.38 93.965L134.385 93.965L123.569 75.1666L120.705 70.1872L112.375 55.7011L125.13 33.7638L144.507 0.429267L163.685 33.8789L176.401 56.0519L176.418 56.0134L187.13 74.6408L189.435 78.6497C189.424 78.6442 189.408 78.6386 189.397 78.6331L216.498 126.342C218.986 129.972 221.182 133.826 223.042 137.861L223.058 137.894C227.565 147.679 230.12 158.542 230.229 169.987C230.234 170.18 230.233 170.378 230.232 170.57Z" fill="#FAFBFC"/>
<path d="M250.173 184.722C246.968 207.514 236.023 227.85 220.091 242.98L223.946 249.68L287.528 249.87L250.173 184.722Z" fill="#FAFBFC"/>
</svg>
