<svg width="1120" height="269" viewBox="0 0 1120 269" fill="none" xmlns="http://www.w3.org/2000/svg">
<path d="M350.128 267.172L245 83.5623L302.589 81.8822L336.349 141.162C338.897 146.064 341.912 150.304 344.068 155.206C346.224 159.912 349.148 163.449 351.305 169.527C353.461 163.449 355.617 158.057 357.774 153.351C359.93 148.449 362.283 143.547 364.831 138.646L392.473 81.8822H446.873L350.128 267.172Z" fill="#2B3137"/>
<path d="M550.629 264.231C530.829 264.231 513.382 260.113 498.287 251.878C483.192 243.643 471.43 232.369 463 218.055C454.571 203.546 450.356 186.978 450.356 168.351C450.356 150.508 454.473 134.724 462.706 120.999C470.94 107.078 482.016 96.0975 495.934 88.0585C510.049 80.0195 525.634 76 542.69 76C560.137 76 575.722 80.0195 589.444 88.0585C603.167 95.9015 613.949 106.686 621.791 120.411C629.828 134.136 633.847 149.724 633.847 167.174V185.115H526.222C521.321 185.115 516.616 184.821 512.108 184.233C507.599 183.644 503.09 182.958 498.581 182.174C500.933 193.938 506.717 203.546 515.93 210.997C525.34 218.251 537.298 221.879 551.805 221.879C562.979 221.879 572.977 219.624 581.799 215.114C590.817 210.605 598.168 205.016 603.853 198.35L615.027 244.231C606.206 250.898 596.208 255.898 585.034 259.231C574.056 262.564 562.587 264.231 550.629 264.231ZM497.405 151.292C507.207 149.135 516.813 148.057 526.222 148.057H557.392C562.881 148.057 568.076 148.253 572.977 148.645C577.878 149.037 582.485 149.724 586.798 150.704C583.857 140.116 578.466 131.783 570.625 125.705C562.979 119.626 553.472 116.587 542.101 116.587C531.319 116.587 521.909 119.724 513.872 125.999C506.03 132.077 500.541 140.508 497.405 151.292Z" fill="#2B3137"/>
<path d="M662.214 268V81.8822H708.087V112.176C714.164 101.98 721.81 94.1368 731.024 88.6467C740.433 82.9606 772 78 785.5 88.6467L773 123.646C769.275 122.469 767.5 123.5 763.5 123.5C748.797 123.5 735.925 128.45 726.907 138.057C717.889 147.469 713.38 160.998 713.38 178.645V268H662.214Z" fill="#2B3137"/>
<path d="M858.598 268C846.64 268 834.486 266.039 822.135 262.118C809.981 258.196 800.473 252.902 793.612 246.236L806.256 198.002C811.941 205.845 819.783 212.707 829.781 218.589C839.975 224.472 850.463 227.413 861.245 227.413C868.498 227.413 873.693 226.04 876.83 223.295C880.162 220.55 881.829 217.217 881.829 213.295C881.829 208.786 880.162 205.551 876.83 203.59C873.497 201.433 870.066 199.668 866.538 198.296L841.837 188.884C836.348 186.727 826.84 180.017 819.783 176.292C812.725 172.566 806.55 167.272 801.257 160.41C796.16 153.547 793.612 144.528 793.612 133.352C793.612 123.156 796.16 113.744 801.257 105.117C806.354 96.4897 813.706 89.5291 823.311 84.2351C833.113 78.745 844.876 76 858.598 76C871.341 76 883.201 78.1568 894.179 82.4704C905.353 86.784 913.489 91.5879 918.586 96.8818L906.823 143.351C900.158 134.724 892.219 128.156 883.005 123.646C873.987 118.94 865.361 116.587 857.128 116.587C850.855 116.587 846.248 117.862 843.307 120.411C840.367 122.96 838.896 125.901 838.896 129.234C838.896 131.783 839.877 134.332 841.837 136.881C843.993 139.234 847.522 141.391 852.423 143.351L875.359 151.881C882.025 154.233 889.082 157.371 896.531 161.292C904.177 165.214 910.646 170.704 915.939 177.762C921.232 184.625 927.113 197.904 927.113 210.06C927.113 227.119 920.742 241.04 908 251.824C895.453 262.608 878.986 268 858.598 268Z" fill="#2B3137"/>
<path d="M1044.78 264.231C1024.98 264.231 1007.53 260.113 992.44 251.878C977.345 243.643 965.583 232.369 957.153 218.055C948.723 203.546 944.509 186.978 944.509 168.351C944.509 150.508 948.625 134.724 956.859 120.999C965.093 107.078 976.169 96.0975 990.087 88.0585C1004.2 80.0195 1019.79 76 1036.84 76C1054.29 76 1069.87 80.0195 1083.6 88.0585C1097.32 95.9015 1099.6 99.3328 1107.44 113.058C1115.48 126.783 1119.5 142.371 1119.5 159.821V177.762L1021.11 183.056C1016.21 183.056 1011.51 182.762 1007 182.174C1002 182.174 997.243 182.958 992.734 182.174C995.086 193.938 1000.87 203.546 1010.08 210.997C1019.49 218.251 1031.45 221.879 1045.96 221.879C1057.13 221.879 1067.13 219.624 1075.95 215.114C1084.97 210.605 1092.32 205.016 1098.01 198.35L1109.18 244.231C1100.36 250.898 1090.36 255.898 1079.19 259.231C1068.21 262.564 1056.74 264.231 1044.78 264.231ZM991.558 151.292C1001.36 149.135 1010.97 148.057 1020.38 148.057H1051.55C1057.03 148.057 1062.23 148.253 1067.13 148.645C1072.03 149.037 1076.64 149.724 1080.95 150.704C1078.01 140.116 1072.62 131.783 1064.78 125.705C1057.13 119.626 1047.62 116.587 1036.25 116.587C1025.47 116.587 1016.06 119.724 1008.02 125.999C1000.18 132.077 994.694 140.508 991.558 151.292Z" fill="#2B3137"/>
<path d="M63.4419 223.092L44.6945 190.265L3.02044e-05 267.143L68.7845 267.348L78.8406 250.051L79.0246 249.738C78.6186 249.235 78.2244 248.738 77.8362 248.223C77.7362 248.087 77.6421 247.945 77.554 247.797L63.4419 223.092Z" fill="#2B3137"/>
<path d="M246.997 182.99C246.996 183.357 246.995 183.723 246.988 184.083C246.645 205.791 238.141 225.509 224.402 240.303C220.829 244.16 216.891 247.68 212.654 250.803C212.322 251.056 211.991 251.297 211.659 251.539C211.488 251.662 211.322 251.786 211.15 251.903C211.121 251.927 211.097 251.95 211.067 251.968C210.801 252.156 210.535 252.344 210.262 252.532C209.996 252.721 209.724 252.909 209.452 253.091C209.055 253.367 208.659 253.632 208.262 253.891C207.878 254.143 207.493 254.39 207.108 254.631C207.02 254.69 206.937 254.743 206.848 254.796C206.807 254.831 206.759 254.861 206.712 254.884C206.333 255.125 205.955 255.354 205.57 255.589C205.487 255.636 205.41 255.683 205.328 255.736C204.961 255.948 204.251 256.371 203.884 256.582C203.358 256.876 202.831 257.17 202.305 257.458C202.263 257.487 202.216 257.51 202.169 257.534C202.08 257.581 201.991 257.628 201.902 257.675C201.589 257.845 201.269 258.016 200.95 258.18C200.542 258.391 200.134 258.603 199.72 258.808C199.312 259.014 198.898 259.213 198.478 259.413C197.981 259.653 197.478 259.888 196.97 260.117C196.639 260.27 196.301 260.422 195.964 260.569C195.119 260.938 194.261 261.302 193.398 261.648C192.967 261.818 192.535 261.988 192.103 262.152C191.707 262.304 191.311 262.451 190.909 262.597L190.572 262.72C190.211 262.849 189.845 262.972 189.478 263.101C189.041 263.253 188.597 263.399 188.154 263.54C187.924 263.616 187.687 263.692 187.457 263.762C187.38 263.785 187.303 263.809 187.226 263.832C186.865 263.949 186.499 264.06 186.133 264.165C186.079 264.183 186.032 264.201 185.979 264.212C185.648 264.312 185.317 264.405 184.986 264.499C184.519 264.627 184.058 264.756 183.591 264.878C183.372 264.937 183.148 264.995 182.929 265.048C182.87 265.065 182.811 265.077 182.752 265.094C182.297 265.211 181.842 265.322 181.381 265.427C181.351 265.433 181.321 265.438 181.292 265.444C180.985 265.52 180.671 265.59 180.364 265.654C179.95 265.747 179.525 265.835 179.105 265.922C178.686 266.009 178.266 266.091 177.847 266.166C177.173 266.294 176.494 266.416 175.814 266.526C175.785 266.532 175.755 266.538 175.72 266.544C175.466 266.584 175.211 266.625 174.957 266.66C174.597 266.718 174.231 266.77 173.864 266.816C173.138 266.92 172.405 267.012 171.673 267.093C171.306 267.139 170.934 267.179 170.568 267.214C170.184 267.248 169.794 267.282 169.404 267.316C169.008 267.351 168.607 267.385 168.205 267.413C168.17 267.413 168.128 267.413 168.093 267.419C167.709 267.447 167.331 267.47 166.947 267.486C166.527 267.514 166.102 267.531 165.683 267.547C165.376 267.564 165.063 267.575 164.75 267.58C164.242 267.596 163.734 267.607 163.226 267.611C162.854 267.616 162.482 267.62 162.104 267.619C161.773 267.618 161.436 267.611 161.106 267.61C160.604 267.603 160.108 267.596 159.612 267.576C159.287 267.57 158.956 267.557 158.631 267.544C158.307 267.531 157.982 267.513 157.657 267.494C157.297 267.475 156.943 267.456 156.583 267.432C156.11 267.401 155.638 267.364 155.171 267.327C154.746 267.29 154.321 267.254 153.896 267.211C153.849 267.205 153.808 267.205 153.76 267.199C153.371 267.156 152.993 267.12 152.609 267.071C152.225 267.029 151.842 266.986 151.458 266.932C151.169 266.896 150.885 266.859 150.602 266.817C150.478 266.805 150.354 266.787 150.236 266.769C149.533 266.666 148.843 266.558 148.152 266.444C147.987 266.42 147.828 266.39 147.668 266.36C147.408 266.318 147.155 266.27 146.901 266.222C146.287 266.108 145.679 265.988 145.077 265.862C145 265.85 144.924 265.832 144.847 265.82C144.782 265.808 144.717 265.79 144.652 265.778C144.097 265.658 143.548 265.532 143 265.407C142.982 265.407 142.958 265.401 142.941 265.395C142.923 265.389 142.899 265.383 142.882 265.383C142.587 265.305 142.297 265.239 142.002 265.168C141.666 265.084 141.33 265 140.993 264.911C140.32 264.737 139.654 264.552 138.993 264.361C138.662 264.266 138.332 264.17 138.001 264.069C137.872 264.033 137.742 263.991 137.612 263.95C137.394 263.884 137.181 263.818 136.969 263.753C136.609 263.64 136.255 263.526 135.895 263.407C135.441 263.258 134.992 263.103 134.544 262.948C134.202 262.829 133.86 262.71 133.523 262.585C133.311 262.508 133.093 262.43 132.88 262.347C132.096 262.055 131.323 261.758 130.556 261.442C130.25 261.317 129.949 261.192 129.648 261.068C129.288 260.913 128.923 260.758 128.563 260.598C127.884 260.3 127.206 259.991 126.534 259.676C126.198 259.522 125.868 259.361 125.531 259.195C125.195 259.034 124.865 258.868 124.529 258.702C123.868 258.369 123.214 258.031 122.565 257.68C122.17 257.478 121.781 257.253 121.398 257.045C120.773 256.712 120.166 256.356 119.564 255.994C119.276 255.822 118.987 255.65 118.71 255.478C118.391 255.288 118.079 255.098 117.766 254.896C117.613 254.801 117.454 254.7 117.301 254.599C117.148 254.499 116.988 254.404 116.835 254.303C116.523 254.107 116.21 253.905 115.904 253.698C115.898 253.698 115.898 253.698 115.898 253.698C115.556 253.472 115.214 253.241 114.878 253.004C114.867 252.998 114.855 252.986 114.843 252.98C114.819 252.968 114.802 252.95 114.778 252.938C114.696 252.885 114.613 252.826 114.531 252.772C114.507 252.754 114.483 252.737 114.46 252.719C114.354 252.642 114.248 252.571 114.142 252.493C113.817 252.274 113.499 252.049 113.181 251.817C112.88 251.598 112.586 251.384 112.291 251.165C111.991 250.946 111.702 250.726 111.407 250.501C111.113 250.282 110.824 250.056 110.535 249.831C110.241 249.6 109.958 249.375 109.669 249.143C109.381 248.912 109.098 248.681 108.815 248.45C108.267 247.999 107.731 247.543 107.195 247.075C106.647 246.601 106.099 246.121 105.563 245.629C104.998 245.114 104.439 244.586 103.885 244.047C103.62 243.792 103.355 243.538 103.096 243.277C101.995 242.187 100.923 241.068 99.8815 239.913C99.6579 239.664 99.4342 239.416 99.2105 239.161C99.0045 238.924 98.7926 238.687 98.5866 238.451C98.5867 238.445 98.5867 238.445 98.5808 238.439L98.5572 238.415L98.5572 238.409C98.3159 238.131 98.0747 237.847 97.8393 237.562C97.7569 237.468 97.6745 237.373 97.598 237.278C97.5509 237.219 97.498 237.16 97.4509 237.101C97.4391 237.089 97.4274 237.071 97.4215 237.059C97.3214 236.947 97.2273 236.828 97.1331 236.71L57.6641 167.944L57.8481 167.626L91.6665 109.456L91.6019 109.343L91.6019 109.337L104.353 87.4771L91.7971 109.226L98.4515 97.7826L104.4 87.554L106.955 92.0027L117.76 110.786L118.13 111.43L118.418 111.933L118.418 111.939L138.664 147.132L138.681 147.162L125.978 169.016L140.237 193.804L140.425 194.129C140.484 194.265 140.542 194.395 140.601 194.531L142.945 198.607C143.033 198.732 143.122 198.856 143.21 198.974C147.739 205.142 155.032 209.15 163.27 209.174C166.146 209.183 168.906 208.707 171.483 207.823C171.856 207.694 172.222 207.559 172.583 207.413C172.784 207.331 172.991 207.249 173.192 207.161C173.204 207.155 173.222 207.149 173.233 207.143C173.281 207.119 173.328 207.102 173.375 207.078C173.606 206.979 173.831 206.879 174.056 206.767C174.316 206.65 174.57 206.521 174.818 206.386C175.085 206.251 175.351 206.11 175.611 205.957C176.149 205.658 176.67 205.34 177.173 204.999C177.658 204.676 178.126 204.335 178.588 203.982C178.599 203.976 178.611 203.97 178.623 203.958C184.507 199.411 188.302 192.288 188.326 184.274C188.338 180.128 187.34 176.216 185.561 172.773L184.427 170.797L184.421 170.791L154.828 119.335L150.498 111.805L144.558 101.487L144.164 100.807L144.17 100.807L132.567 80.6399L129.494 75.2979L120.558 59.7569L134.241 36.2223L155.029 0.460495L175.604 36.3458L189.246 60.1333L189.264 60.092L200.755 80.0757L203.229 84.3766C203.217 84.3706 203.199 84.3647 203.188 84.3587L232.262 135.542C234.932 139.435 237.287 143.571 239.282 147.899L239.3 147.935C244.135 158.432 246.876 170.086 246.993 182.364C246.998 182.571 246.997 182.784 246.997 182.99Z" fill="#2B3137"/>
<path d="M268.39 198.173C264.95 222.625 253.209 244.441 236.117 260.672L240.253 267.86L308.465 268.064L268.39 198.173Z" fill="#2B3137"/>
</svg>
