<svg width="100" height="36" viewBox="0 0 100 36" fill="none" xmlns="http://www.w3.org/2000/svg">
<rect x="27" y="8" width="5" height="26" rx="2" transform="rotate(90 27 8)" fill="white"/>
<rect x="24.3984" y="15" width="5" height="20.8" rx="2" transform="rotate(90 24.3984 15)" fill="white"/>
<rect x="19.1992" y="22" width="5" height="10.4" rx="2" transform="rotate(90 19.1992 22)" fill="white"/>
<path d="M38.18 9.56H49.3V11.54L42.12 21H49.48V23.56H38V21.58L45.18 12.12H38.18V9.56Z" fill="white"/>
<path d="M53.6186 9.46C53.9186 9.76 54.0786 10.14 54.0786 10.58C54.0786 11.04 53.9186 11.42 53.6186 11.72C53.2986 12.04 52.9186 12.18 52.4586 12.18C51.9786 12.18 51.5986 12.04 51.2786 11.72C50.9586 11.42 50.8186 11.04 50.8186 10.58C50.8186 10.14 50.9586 9.76 51.2786 9.46C51.5986 9.16 51.9786 9 52.4586 9C52.9186 9 53.2986 9.16 53.6186 9.46ZM51.0386 13.28H53.8586V23.56H51.0386V13.28Z" fill="white"/>
<path d="M64.2437 13.82C64.9637 14.26 65.5237 14.86 65.9237 15.66C66.3237 16.46 66.5438 17.4 66.5438 18.44C66.5438 19.5 66.3237 20.42 65.9237 21.2C65.5237 22 64.9637 22.6 64.2437 23.04C63.5237 23.48 62.7038 23.68 61.7838 23.68C60.4638 23.68 59.4238 23.22 58.6838 22.26V27.56H55.8638V13.28H58.3237L58.6038 14.7C58.9438 14.24 59.3838 13.86 59.9237 13.58C60.4638 13.3 61.0838 13.16 61.8038 13.16C62.7238 13.16 63.5237 13.38 64.2437 13.82ZM62.9838 20.56C63.4438 20 63.6838 19.28 63.6838 18.4C63.6838 17.52 63.4438 16.82 62.9838 16.28C62.5038 15.74 61.9038 15.46 61.1438 15.46C60.3838 15.46 59.7637 15.74 59.3237 16.28C58.8637 16.82 58.6437 17.52 58.6437 18.4C58.6437 19.3 58.8637 20.02 59.3237 20.56C59.7637 21.12 60.3838 21.38 61.1438 21.38C61.9038 21.38 62.5038 21.12 62.9838 20.56Z" fill="white"/>
<path d="M76.5298 13.82C77.2498 14.26 77.8098 14.86 78.2098 15.66C78.6098 16.46 78.8298 17.4 78.8298 18.44C78.8298 19.5 78.6098 20.42 78.2098 21.2C77.8098 22 77.2498 22.6 76.5298 23.04C75.8098 23.48 74.9898 23.68 74.0698 23.68C72.7498 23.68 71.7098 23.22 70.9698 22.26V27.56H68.1498V13.28H70.6098L70.8898 14.7C71.2298 14.24 71.6698 13.86 72.2098 13.58C72.7498 13.3 73.3698 13.16 74.0898 13.16C75.0098 13.16 75.8098 13.38 76.5298 13.82ZM75.2698 20.56C75.7298 20 75.9698 19.28 75.9698 18.4C75.9698 17.52 75.7298 16.82 75.2698 16.28C74.7898 15.74 74.1898 15.46 73.4298 15.46C72.6698 15.46 72.0498 15.74 71.6098 16.28C71.1498 16.82 70.9298 17.52 70.9298 18.4C70.9298 19.3 71.1498 20.02 71.6098 20.56C72.0498 21.12 72.6698 21.38 73.4298 21.38C74.1898 21.38 74.7898 21.12 75.2698 20.56Z" fill="white"/>
<path d="M80.6759 15.66C81.1159 14.86 81.7159 14.26 82.4959 13.82C83.2759 13.38 84.1759 13.16 85.2159 13.16C86.2559 13.16 87.1559 13.38 87.9559 13.78C88.7559 14.18 89.3759 14.76 89.8159 15.5C90.2559 16.24 90.4959 17.1 90.5159 18.1C90.5159 18.46 90.4759 18.78 90.4359 19.06H82.9759V19.14C83.0359 19.9 83.2759 20.48 83.6959 20.9C84.0959 21.34 84.6759 21.54 85.3959 21.54C85.9559 21.54 86.4359 21.42 86.8159 21.18C87.1959 20.94 87.4559 20.56 87.5759 20.08H90.3559C90.2359 20.76 89.9759 21.38 89.5759 21.92C89.1559 22.48 88.6159 22.9 87.9359 23.22C87.2559 23.54 86.4759 23.68 85.5959 23.68C84.4359 23.68 83.4559 23.48 82.6159 23.04C81.7759 22.62 81.1359 22.02 80.6959 21.22C80.2559 20.42 80.0359 19.5 80.0359 18.44C80.0359 17.38 80.2359 16.46 80.6759 15.66ZM87.6959 17.22C87.5959 16.6 87.3359 16.12 86.9159 15.78C86.4959 15.44 85.9759 15.26 85.3359 15.26C84.7159 15.26 84.1959 15.44 83.7759 15.8C83.3559 16.16 83.1159 16.62 83.0359 17.22H87.6959Z" fill="white"/>
<path d="M98.357 13.28V15.84H97.237C96.437 15.84 95.837 16.08 95.477 16.56C95.097 17.04 94.917 17.7 94.917 18.52V23.56H92.097V13.28H94.657L94.917 14.82C95.217 14.32 95.597 13.94 96.057 13.68C96.497 13.42 97.117 13.28 97.877 13.28H98.357Z" fill="white"/>
</svg>
